#!OML:ASF H:\Punching\Project 1\Capture day 1\Session 1\female.ASF
:FULLY-SPECIFIED
:DEGREES
2511
root -1.30802 15.2099 8.7284 12.5912 1.22238 1.07898
lowerback -0.664276 -1.72684 0.0309393
upperback -6.79005 -2.26644 0.994678
thorax -6.64104 -1.09632 1.13458
lowerneck -11.565 -7.01066 -0.933908
upperneck 31.7492 -12.4164 6.63617
head 13.073 -4.80065 0.894292
rclavicle 1.08462e-014 7.55382e-015
rhumerus 16.3807 -16.8573 -49.5307
rradius 84.4321
rwrist -4.64334
rhand -25.4749 -1.04098
rfingers 7.12502
rthumb 1.05293 -31.0181
lclavicle 1.08462e-014 7.55382e-015
lhumerus -48.1948 -32.6196 100.88
lradius 117.475
lwrist -2.28336
lhand -23.6686 5.124
lfingers 7.12502
lthumb 2.79739 35.0854
rfemur -36.7218 -7.30729 14.081
rtibia 46.179
rfoot -15.9703 -13.9794
rtoes -4.61959
lfemur -2.5391 -7.3516 -6.64697
ltibia 14.6135
lfoot -16.0969 14.8447
ltoes -15.7373
2512
root -1.25668 15.2238 8.69489 12.4389 1.38523 0.941315
lowerback -0.660694 -1.64354 0.146242
upperback -6.73849 -2.15147 0.977858
thorax -6.59471 -1.04642 1.04577
lowerneck -11.5238 -7.01997 -0.868316
upperneck 31.8892 -12.4584 6.63107
head 13.1216 -4.80598 0.877081
rclavicle -3.89494e-015 1.98785e-015
rhumerus 15.8846 -15.981 -50.4387
rradius 85.592
rwrist -7.8265
rhand -23.5069 -2.31898
rfingers 7.12502
rthumb 2.95358 -32.2783
lclavicle -3.89494e-015 1.98785e-015
lhumerus -47.474 -32.8602 100.624
lradius 117.502
lwrist -2.16691
lhand -23.5307 5.31484
lfingers 7.12502
lthumb 2.93062 35.2744
rfemur -36.2952 -7.32332 13.9838
rtibia 45.5194
rfoot -15.545 -13.9791
rtoes -4.72712
lfemur -3.07907 -7.2103 -6.6793
ltibia 15.5603
lfoot -16.3803 14.6345
ltoes -15.7206
2513
root -1.2025 15.2375 8.66147 12.2829 1.54193 0.804894
lowerback -0.646338 -1.56571 0.255737
upperback -6.69428 -2.04385 0.964479
thorax -6.5616 -0.99955 0.964753
lowerneck -11.4728 -7.01969 -0.796353
upperneck 32.0266 -12.4853 6.6202
head 13.1653 -4.80512 0.859386
rclavicle -8.70925e-015 -9.14409e-015
rhumerus 15.3316 -15.0729 -51.3928
rradius 86.7774
rwrist -10.7791
rhand -21.5367 -3.69924
rfingers 7.12502
rthumb 4.85613 -33.6236
lclavicle -8.70925e-015 -9.14409e-015
lhumerus -46.7649 -33.0783 100.391
lradius 117.55
lwrist -1.98442
lhand -23.4173 5.51397
lfingers 7.12502
lthumb 3.04008 35.472
rfemur -35.8534 -7.3338 13.8699
rtibia 44.8436
rfoot -15.1092 -13.977
rtoes -4.84643
lfemur -3.53481 -7.08683 -6.73649
ltibia 16.3551
lfoot -16.6136 14.4657
ltoes -15.6893
2514
root -1.14331 15.252 8.62975 12.1048 1.73004 0.73609
lowerback -0.658672 -1.50041 0.338252
upperback -6.63652 -1.95547 0.926934
thorax -6.49789 -0.961567 0.87345
lowerneck -11.4339 -7.01842 -0.716975
upperneck 32.178 -12.5103 6.59654
head 13.2161 -4.80294 0.835351
rclavicle 1.26228e-014 -4.37326e-015
rhumerus 14.7017 -14.1257 -52.3608
rradius 87.9608
rwrist -13.4457
rhand -19.7518 -5.09169
rfingers 7.12502
rthumb 6.57946 -34.9695
lclavicle 1.26228e-014 -4.37326e-015
lhumerus -46.0636 -33.3167 100.2
lradius 117.613
lwrist -1.74142
lhand -23.3614 5.72553
lfingers 7.12502
lthumb 3.0941 35.6828
rfemur -35.3525 -7.44236 13.6658
rtibia 44.1543
rfoot -14.6793 -13.928
rtoes -5.0175
lfemur -3.89739 -7.03043 -6.9012
ltibia 17.0149
lfoot -16.8083 14.3408
ltoes -15.6369
2515
root -1.08115 15.2664 8.59982 11.9279 1.90036 0.656524
lowerback -0.667192 -1.4501 0.407481
upperback -6.57892 -1.88668 0.909319
thorax -6.43501 -0.931852 0.811494
lowerneck -11.3841 -6.99641 -0.638777
upperneck 32.3052 -12.5013 6.57405
head 13.2525 -4.78741 0.817677
rclavicle 1.11568e-014 -1.51076e-014
rhumerus 14.0368 -13.0695 -53.3504
rradius 89.111
rwrist -15.7746
rhand -18.0788 -6.47593
rfingers 7.12502
rthumb 8.19432 -36.297
lclavicle 1.11568e-014 -1.51076e-014
lhumerus -45.3478 -33.5073 100.012
lradius 117.684
lwrist -1.45711
lhand -23.3649 5.938
lfingers 7.12502
lthumb 3.09066 35.8953
rfemur -34.8383 -7.52712 13.4545
rtibia 43.4462
rfoot -14.236 -13.8826
rtoes -5.20402
lfemur -4.17936 -6.97913 -7.08173
ltibia 17.5524
lfoot -16.9802 14.2635
ltoes -15.5664
2516
root -1.01602 15.281 8.56883 11.7651 2.06596 0.560382
lowerback -0.681663 -1.40492 0.486807
upperback -6.52564 -1.82396 0.904194
thorax -6.37305 -0.905243 0.757194
lowerneck -11.3416 -6.96401 -0.550999
upperneck 32.4299 -12.4754 6.54104
head 13.287 -4.76452 0.796676
rclavicle 2.40778e-014 -2.38542e-015
rhumerus 13.3189 -11.915 -54.3309
rradius 90.2096
rwrist -17.7929
rhand -16.7865 -7.65776
rfingers 7.12502
rthumb 9.44134 -37.4263
lclavicle 2.40778e-014 -2.38542e-015
lhumerus -44.627 -33.6996 99.8536
lradius 117.759
lwrist -1.16058
lhand -23.4335 6.14989
lfingers 7.12502
lthumb 3.02446 36.1082
rfemur -34.3328 -7.58279 13.2447
rtibia 42.7135
rfoot -13.7688 -13.8514
rtoes -5.37164
lfemur -4.43014 -6.93041 -7.26219
ltibia 17.9994
lfoot -17.1334 14.221
ltoes -15.4962
2517
root -0.948272 15.2955 8.53684 11.6204 2.211 0.433842
lowerback -0.688721 -1.3642 0.576835
upperback -6.48014 -1.76585 0.919564
thorax -6.32322 -0.88078 0.718905
lowerneck -11.2973 -6.92008 -0.465762
upperneck 32.5402 -12.4305 6.50997
head 13.3144 -4.73409 0.77982
rclavicle -9.19379e-015 9.54166e-015
rhumerus 12.5707 -10.6467 -55.3079
rradius 91.2394
rwrist -19.4943
rhand -15.7509 -8.63458
rfingers 7.12502
rthumb 10.4404 -38.3553
lclavicle -9.19379e-015 9.54166e-015
lhumerus -43.8956 -33.8696 99.7142
lradius 117.829
lwrist -0.887774
lhand -23.5519 6.34985
lfingers 7.12502
lthumb 2.91011 36.3097
rfemur -33.8423 -7.57629 13.051
rtibia 41.9467
rfoot -13.2686 -13.8529
rtoes -5.53072
lfemur -4.66958 -6.86303 -7.42776
ltibia 18.3987
lfoot -17.2917 14.2133
ltoes -15.4541
2518
root -0.87843 15.3101 8.50083 11.5076 2.33831 0.265363
lowerback -0.680986 -1.31666 0.697883
upperback -6.45442 -1.69664 0.950673
thorax -6.30346 -0.85189 0.68
lowerneck -11.2578 -6.87284 -0.374216
upperneck 32.6513 -12.3803 6.47279
head 13.3421 -4.70108 0.76016
rclavicle -2.3382e-014 4.37326e-015
rhumerus 11.7776 -9.295 -56.2747
rradius 92.2052
rwrist -20.9422
rhand -14.9801 -9.36092
rfingers 7.12502
rthumb 11.1839 -39.0428
lclavicle -2.3382e-014 4.37326e-015
lhumerus -43.1693 -34.059 99.618
lradius 117.889
lwrist -0.662588
lhand -23.7042 6.54069
lfingers 7.12502
lthumb 2.76307 36.5025
rfemur -33.3946 -7.47924 12.888
rtibia 41.1405
rfoot -12.7217 -13.9154
rtoes -5.65104
lfemur -4.94108 -6.76883 -7.5555
ltibia 18.7687
lfoot -17.4523 14.2314
ltoes -15.4318
2519
root -0.806172 15.325 8.46077 11.4205 2.45222 0.0687859
lowerback -0.65246 -1.26217 0.847387
upperback -6.44664 -1.61647 0.989004
thorax -6.31532 -0.818821 0.633111
lowerneck -11.2255 -6.82819 -0.284484
upperneck 32.7655 -12.3352 6.43925
head 13.3735 -4.66963 0.741042
rclavicle -1.14177e-014 1.11319e-014
rhumerus 10.9444 -7.87863 -57.2427
rradius 93.1155
rwrist -22.182
rhand -14.3329 -9.88253
rfingers 7.12502
rthumb 11.8081 -39.5296
lclavicle -1.14177e-014 1.11319e-014
lhumerus -42.441 -34.2859 99.5617
lradius 117.934
lwrist -0.498342
lhand -23.8738 6.72636
lfingers 7.12502
lthumb 2.59925 36.6903
rfemur -32.9785 -7.30383 12.7403
rtibia 40.2934
rfoot -12.1276 -14.0394
rtoes -5.74427
lfemur -5.23592 -6.65153 -7.66232
ltibia 19.1018
lfoot -17.6139 14.273
ltoes -15.4355
